<svg width="723" height="164" viewBox="0 0 723 164" fill="none" xmlns="http://www.w3.org/2000/svg">
<path d="M295.338 38.6955C305.388 48.2665 310.492 61.9848 310.492 80.1696C310.492 98.6734 305.388 112.711 295.338 121.963C285.289 131.374 271.57 136 254.343 136H214.942V24.3391H254.343C271.57 24.3391 285.289 29.1246 295.338 38.6955ZM254.183 121.484C266.625 121.484 276.196 118.134 282.896 111.275C289.596 104.416 292.945 94.0474 292.945 80.1696C292.945 66.2917 289.436 55.9232 282.736 49.064C276.037 42.3644 266.466 38.855 254.024 38.855H232.01V121.484H254.183ZM340.041 133.129C333.341 129.619 328.077 124.355 324.249 117.656C320.261 110.956 318.347 103.299 318.347 94.526C318.347 85.9121 320.261 78.4149 324.249 71.8748C328.077 65.3346 333.501 60.2301 340.201 56.5613C346.9 53.0519 354.078 51.1377 361.895 51.1377C369.552 51.1377 376.889 53.0519 383.589 56.5613C390.289 60.2301 395.553 65.3346 399.54 71.8748C403.369 78.4149 405.442 85.9121 405.442 94.526C405.442 103.299 403.369 110.956 399.54 117.656C395.553 124.355 390.289 129.619 383.589 133.129C376.889 136.798 369.711 138.552 361.895 138.552C353.919 138.552 346.741 136.798 340.041 133.129ZM381.675 117.018C386.62 111.594 389.172 104.097 389.172 94.526C389.172 85.2741 386.62 77.9363 381.675 72.5128C376.73 67.2488 370.19 64.537 361.895 64.537C353.6 64.537 347.06 67.2488 342.115 72.5128C337.17 77.9363 334.777 85.2741 334.777 94.526C334.777 104.097 337.17 111.594 342.115 117.018C347.06 122.441 353.6 125.153 361.895 125.153C370.19 125.153 376.73 122.441 381.675 117.018ZM539.332 59.4325C544.437 65.0156 547.148 72.3533 547.148 81.2862V136H531.197V86.8692C531.197 80.1696 529.442 74.9056 525.933 70.9177C522.423 67.0893 517.638 65.0156 511.736 65.0156C505.036 65.0156 499.772 67.7274 495.784 72.8319C491.796 77.9363 489.882 84.7955 489.882 93.4094V136H473.771V86.8692C473.771 80.1696 472.017 74.9056 468.507 70.9177C464.998 67.0893 460.372 65.0156 454.47 65.0156C447.77 65.0156 442.347 67.7274 438.518 72.8319C434.53 77.9363 432.616 84.7955 432.616 93.4094V136H416.505L416.346 53.8495H431.819L432.616 77.9363H433.573C434.53 69.8011 437.721 63.2609 442.985 58.4755C448.089 53.69 454.47 51.1377 461.808 51.1377C469.464 51.1377 476.004 53.69 481.109 58.4755C486.213 63.2609 489.085 69.8011 489.723 77.9363H490.839C491.796 69.8011 494.987 63.2609 500.251 58.4755C505.355 53.69 511.736 51.1377 519.074 51.1377C527.368 51.1377 534.068 54.009 539.332 59.4325ZM619.419 53.69H635.53V136H620.057L619.419 111.754H618.462C617.345 119.889 613.995 126.429 608.572 131.215C603.148 136.16 596.449 138.552 588.792 138.552C583.049 138.552 577.785 137.436 573.319 134.883C568.852 132.331 565.343 128.822 562.791 124.196C560.239 119.57 558.962 114.146 558.962 107.925V53.69H575.074V102.821C575.074 109.68 576.828 115.103 580.657 118.932C584.325 122.76 589.43 124.674 595.97 124.674C602.989 124.674 608.572 122.122 612.879 117.018C617.186 111.913 619.419 104.894 619.419 96.2806V53.69ZM655.277 131.055C648.578 125.951 644.909 118.772 644.43 109.52H660.701C661.02 114.944 663.253 118.932 667.241 121.644C671.069 124.515 676.653 125.791 683.831 125.791C689.733 125.791 694.359 124.834 697.868 122.601C701.218 120.527 702.973 117.656 702.973 113.827C702.973 111.116 702.015 108.882 700.42 107.287C698.666 105.692 695.794 104.575 691.647 103.618L669.155 98.5139C661.977 96.9187 656.394 94.3664 652.406 90.5381C648.418 86.7097 646.504 81.9242 646.504 76.0222C646.504 68.5249 649.535 62.4633 655.916 57.9969C662.137 53.5305 670.591 51.1377 681.278 51.1377C692.764 51.1377 701.696 53.8495 708.396 58.954C714.936 64.0585 718.286 71.2367 718.286 80.1696H702.335C702.335 75.0651 700.42 71.0772 696.751 68.2059C693.083 65.3346 687.978 63.899 681.598 63.899C675.536 63.899 670.91 65.0156 667.56 67.0893C664.051 69.163 662.456 72.0343 662.456 75.5436C662.456 78.0959 663.413 80.1696 665.327 82.0838C667.241 83.9979 670.112 85.2741 673.622 85.9121L696.273 91.0166C704.249 92.9308 709.991 95.4831 713.66 98.9924C717.329 102.502 719.243 107.128 719.243 113.189C719.243 121.165 716.053 127.386 709.672 131.853C703.292 136.319 694.678 138.552 683.671 138.552C671.548 138.552 661.977 136.16 655.277 131.055Z" fill="white"/>
<path d="M123.279 137.582C126.926 137.582 129.883 140.539 129.883 144.186L129.883 157.394C129.883 161.041 126.926 163.998 123.279 163.998L110.071 163.998C106.423 163.998 103.467 161.041 103.467 157.394L103.467 144.186C103.467 140.539 106.423 137.582 110.071 137.582L123.279 137.582Z" fill="#76C03D"/>
<path d="M44.0259 31.918C40.3786 31.918 37.4219 28.9612 37.4219 25.3139L37.4219 12.1059C37.4219 8.45857 40.3786 5.50185 44.0259 5.50185L57.234 5.50185C60.8813 5.50185 63.838 8.45857 63.838 12.1059L63.838 25.3139C63.838 28.9612 60.8813 31.918 57.234 31.918L44.0259 31.918Z" fill="#76C03D"/>
<path d="M131.812 96.5883C130.574 95.3498 129.878 93.6701 129.878 91.9186L129.878 77.5775C129.878 75.826 130.574 74.1462 131.812 72.9077L133.447 71.2729C134.686 70.0344 136.365 69.3386 138.117 69.3386L160.697 69.3386C164.344 69.3386 167.301 66.3819 167.301 62.7346L167.301 40.7212C167.301 37.0738 164.344 34.1171 160.697 34.1171L138.117 34.1171C136.365 34.1171 134.686 33.4213 133.447 32.1828L131.812 30.548C130.574 29.3095 129.878 27.6298 129.878 25.8783L129.878 12.1037C129.878 8.45638 126.921 5.49966 123.274 5.49966L110.066 5.49965C106.419 5.49965 103.462 8.45638 103.462 12.1037L103.462 25.8783C103.462 27.6298 102.766 29.3095 101.528 30.548L99.8928 32.1829C98.6543 33.4213 96.9746 34.1171 95.2231 34.1171L72.6431 34.1171C68.9958 34.1171 66.0391 37.0738 66.0391 40.7212L66.0391 62.7346C66.0391 66.3819 68.9958 69.3386 72.6431 69.3386L94.6565 69.3386C98.3038 69.3386 101.261 66.3819 101.261 62.7346L101.261 40.1546C101.261 38.4031 101.956 36.7234 103.195 35.4849L104.83 33.85C106.068 32.6116 107.748 31.9158 109.499 31.9158L123.841 31.9158C125.592 31.9158 127.272 32.6116 128.51 33.8501L130.145 35.4849C131.384 36.7234 132.079 38.4031 132.079 40.1546L132.079 63.3011C132.079 65.0526 131.384 66.7324 130.145 67.9709L128.51 69.6057C127.272 70.8442 125.592 71.54 123.841 71.54L110.066 71.54C106.419 71.54 103.462 74.4967 103.462 78.144L103.462 91.352C103.462 94.9994 106.419 97.9561 110.066 97.9561L123.841 97.9561C125.592 97.9561 127.272 98.6519 128.51 99.8904L130.145 101.525C131.384 102.764 132.079 104.443 132.079 106.195L132.079 128.775C132.079 132.422 135.036 135.379 138.683 135.379L160.697 135.379C164.344 135.379 167.301 132.422 167.301 128.775L167.301 106.761C167.301 103.114 164.344 100.157 160.697 100.157L138.117 100.157C136.365 100.157 134.686 99.4616 133.447 98.2231L131.812 96.5883Z" fill="#76C03D"/>
<path d="M62.4712 135.65C61.2327 136.888 59.553 137.584 57.8015 137.584L43.4603 137.584C41.7088 137.584 40.0291 136.888 38.7906 135.65L37.1558 134.015C35.9173 132.776 35.2215 131.097 35.2215 129.345L35.2215 106.198C35.2215 104.446 35.9176 102.766 37.1567 101.528L38.7907 99.8941C40.0291 98.6562 41.7085 97.9608 43.4596 97.9608L57.2349 97.9608C60.8822 97.9608 63.839 95.004 63.839 91.3567L63.839 78.1487C63.839 74.5014 60.8822 71.5447 57.2349 71.5447L43.4607 71.5447C41.709 71.5447 40.029 70.8487 38.7905 69.6099L37.1553 67.9744C35.9171 66.736 35.2215 65.0564 35.2215 63.3051L35.2215 40.7248C35.2215 37.0775 32.2648 34.1207 28.6175 34.1207L6.60403 34.1207C2.95672 34.1207 -1.84504e-06 37.0775 -1.84503e-06 40.7248L-1.84504e-06 62.7382C-1.84504e-06 66.3855 2.95672 69.3422 6.60403 69.3422L29.184 69.3422C30.9355 69.3422 32.6153 70.038 33.8538 71.2765L35.4886 72.9113C36.7271 74.1498 37.4228 75.8296 37.4228 77.5811L37.4228 91.9215C37.4228 93.6728 36.7272 95.3523 35.489 96.5908L33.8538 98.2263C32.6153 99.4651 30.9353 100.161 29.1836 100.161L6.60403 100.161C2.95672 100.161 -1.84504e-06 103.118 -1.84504e-06 106.765L-1.84504e-06 128.779C-1.84504e-06 132.426 2.95672 135.383 6.60403 135.383L29.184 135.383C30.9355 135.383 32.6153 136.078 33.8538 137.317L35.4886 138.952C36.7271 140.19 37.4228 141.87 37.4228 143.621L37.4228 157.396C37.4228 161.043 40.3796 164 44.0269 164L57.2349 164C60.8822 164 63.839 161.043 63.839 157.396L63.839 143.621C63.839 141.87 64.5347 140.19 65.7732 138.952L67.408 137.317C68.6465 136.078 70.3263 135.383 72.0778 135.383L94.6578 135.383C98.3051 135.383 101.262 132.426 101.262 128.779L101.262 106.765C101.262 103.118 98.3051 100.161 94.6578 100.161L72.6443 100.161C68.997 100.161 66.0403 103.118 66.0403 106.765L66.0403 129.345C66.0403 131.097 65.3445 132.776 64.106 134.015L62.4712 135.65Z" fill="#76C03D"/>
</svg>
